<svg width="48" height="48" viewBox="0 0 48 48" fill="none" xmlns="http://www.w3.org/2000/svg">
<g clip-path="url(#clip0_830_1696)">
<mask id="mask0_830_1696" style="mask-type:luminance" maskUnits="userSpaceOnUse" x="0" y="0" width="48" height="48">
<path d="M8 0H40C44.4 0 48 3.6 48 8V40C48 44.4 44.4 48 40 48H8C3.6 48 0 44.4 0 40V8C0 3.6 3.6 0 8 0Z" fill="white"/>
</mask>
<g mask="url(#mask0_830_1696)">
<path d="M8 0H40C44.4 0 48 3.6 48 8V40C48 44.4 44.4 48 40 48H8C3.6 48 0 44.4 0 40V8C0 3.6 3.6 0 8 0Z" fill="#E5352B"/>
<path d="M0 13.5C0 10.6 0.8 8.29999 2.5 6.59999C4.2 4.89999 6.5 4.09999 9.5 4.09999H29.2C31.1 4.09999 32.6 4.39999 33.7 4.99999C34.8 5.59999 35.5 6.39999 36 7.49999C36.5 6.29999 37.3 5.39999 38.4 4.79999C39.5 4.09999 41 3.79999 43 3.79999H47.9V9.39999H44.4C42.9 9.39999 41.8 9.69999 41.2 10.3C40.6 10.9 40.3 12 40.3 13.8V18H48V23.5H0V13.5ZM32.1 17.7V13.9C32.1 12.2 31.8 11.1 31.1 10.4C30.4 9.79999 29.3 9.49999 27.8 9.49999H10.1C6.9 9.49999 5.3 11 5.3 13.9V17.7H32.1Z" fill="white"/>
<path d="M47.8 44.3H0V38.8H7.7V34.6C7.7 32.9 7.4 31.7 6.8 31.1C6.2 30.5 5.1 30.2 3.6 30.2H0V24.6H4.9C6.9 24.6 8.4 24.9 9.5 25.6C10.6 26.3 11.4 27.2 11.9 28.3C12.4 27.2 13.2 26.4 14.2 25.8C15.3 25.2 16.7 24.9 18.7 24.9H38.4C41.4 24.9 43.7 25.7 45.4 27.4C47.1 29.1 47.9 31.4 47.9 34.3V44.3H47.8ZM42.5 38.8V35C42.5 32.1 40.9 30.6 37.7 30.6H20.1C18.6 30.6 17.4 30.9 16.8 31.5C16.1 32.1 15.8 33.3 15.8 34.9V38.7H42.5V38.8Z" fill="white"/>
</g>
</g>
<defs>
<clipPath id="clip0_830_1696">
<rect width="48" height="48" fill="white"/>
</clipPath>
</defs>
</svg>
