<svg width="48" height="48" viewBox="0 0 48 48" fill="none" xmlns="http://www.w3.org/2000/svg">
<g clip-path="url(#clip0_494_328)">
<rect width="48" height="48" rx="8" fill="white"/>
<path d="M45.3708 16.0197C45.5382 16.4691 45.3886 16.8403 45.1395 17.2254C36.2895 30.9824 27.4452 44.743 18.6065 58.5072C18.3585 58.8931 18.0803 59.18 17.6046 59.2177L10.2631 54.4991C10.0921 54.1046 10.0341 53.7176 10.4181 53.4144C10.8062 53.1074 11.1604 53.281 11.5189 53.5147C12.6512 54.2535 13.7922 54.9789 14.9644 55.7323L41.086 15.0906L37.0811 12.5166C36.0236 13.6969 34.9088 14.8625 33.8805 16.1013C30.4775 20.2013 28.2638 24.9243 26.6713 29.9718C25.5751 33.4433 24.1346 36.7604 22.0895 39.7889C20.2934 42.4498 18.266 44.8968 15.5313 46.6635C14.3265 47.4423 13.0298 48.003 11.6032 48.2291C10.0608 48.4745 9.17779 47.5334 9.61533 46.0389C10.8162 41.9272 13.2927 38.7864 16.9586 36.585C17.2095 36.4346 17.5112 36.3313 17.8009 36.2886C18.5965 36.1736 19.2603 36.7337 19.2021 37.5341C19.1075 38.8437 18.5954 40.0263 17.8836 41.114C17.6561 41.4605 17.2711 41.5056 16.901 41.29C16.5514 41.0844 16.4675 40.6807 16.6552 40.2799C17.0001 39.5478 17.3365 38.8118 17.602 38.035C14.2624 40.0726 11.9928 42.8964 11.0128 46.6891C11.0388 46.7551 11.0643 46.8192 11.0903 46.8852C11.6142 46.7354 12.1458 46.6082 12.6611 46.4323C14.5764 45.7747 16.0856 44.5224 17.474 43.1017C21.0747 39.4165 23.4112 35.0045 25.0463 30.1578C25.8878 27.6639 26.8238 25.191 27.8915 22.7853C29.2741 19.6695 31.1995 16.8692 33.4317 14.2915C34.1952 13.4104 35.0072 12.5699 35.8087 11.6988L27.9576 6.65268C27.3481 7.60102 26.7916 8.5533 26.1515 9.44541C24.4718 11.7916 22.3891 13.7707 20.3294 15.7757C18.2508 17.8003 16.1433 19.8079 14.2157 21.971C12.022 24.4319 10.431 27.2659 9.89434 30.5916C9.85499 30.8334 9.84393 31.0806 9.81944 31.324C13.0551 31.6915 18.1538 26.1553 18.0501 22.4038C17.1505 22.824 16.4517 23.4685 15.8986 24.2449C15.2698 25.1268 14.7142 26.0605 14.1357 26.9779C13.8127 27.4904 13.4389 27.654 13.0319 27.429C12.6222 27.2006 12.5386 26.7669 12.8137 26.2522C13.6762 24.6383 14.6301 23.0799 16.0786 21.922C16.6416 21.4715 17.2993 21.0962 17.9714 20.8319C18.9735 20.4379 19.607 20.9214 19.6135 21.997C19.6228 23.3479 19.1545 24.581 18.6356 25.7989C17.7818 27.8001 16.5655 29.5268 14.8376 30.8771C13.5872 31.8555 12.1639 32.4573 10.6366 32.803C9.07412 33.1563 8.18449 32.3095 8.35324 30.7139C8.64578 27.961 9.82687 25.5693 11.3434 23.3137C13.2768 20.4391 15.6811 17.9895 18.2234 15.6589C20.6237 13.4579 23.0054 11.2338 24.9213 8.57686C25.5525 7.70122 26.0969 6.7651 26.6949 5.83475L22.6484 3.23394C22.3411 3.71205 22.0389 4.18229 21.7366 4.65253C21.4113 5.15876 21.0926 5.66933 20.7571 6.16906C20.4383 6.64292 20.0467 6.76002 19.658 6.52134C19.2547 6.27325 19.1889 5.84628 19.508 5.34237C20.2315 4.197 20.9789 3.06865 21.6949 1.92006C21.9124 1.57181 22.2165 1.43502 22.5891 1.37722L45.3708 16.0197ZM42.4319 15.9398L16.3197 56.5669L17.5156 57.3355L43.6277 16.7084L42.4319 15.9398Z" fill="black"/>
<path d="M-5.17547 44.576C-5.34176 44.1273 -5.1933 43.7554 -4.9453 43.3695C2.46185 31.8598 9.86113 20.3451 17.2627 8.83174C17.3617 8.67762 17.4622 8.52125 17.5861 8.38786C17.8503 8.10299 18.1647 8.07139 18.4912 8.27328C18.8356 8.48674 18.9562 8.79631 18.7908 9.17486C18.6975 9.38675 18.5662 9.5837 18.4396 9.78057C11.2753 20.9297 4.10881 32.0774 -3.0566 43.2258C-3.18241 43.4216 -3.30822 43.6173 -3.45572 43.8468L-1.14392 45.3327C-1.07458 45.2421 -0.987492 45.1487 -0.922498 45.0426C1.72729 40.6874 5.37803 37.4461 9.94146 35.1888C11.764 34.2872 13.6256 33.4092 15.2928 32.2647C18.0469 30.3738 19.9397 27.7751 20.645 24.4418C20.7911 23.7519 20.7551 23.0166 20.7528 22.3029C20.7516 21.7235 20.9711 21.3622 21.4416 21.3276C21.8891 21.2942 22.1939 21.5918 22.2559 22.1483C22.4899 24.2525 21.9143 26.1844 20.9599 28.0254C19.1446 31.5276 16.2508 33.8311 12.7554 35.5174C10.8802 36.4217 9.01868 37.3888 7.27334 38.5164C4.44245 40.3436 2.22357 42.8091 0.45508 45.6768C0.360121 45.832 0.276009 45.9926 0.151727 46.2131L0.612963 46.5096C3.10139 48.109 5.5891 49.7095 8.07969 51.3055C8.43293 51.5325 8.75025 51.7635 8.63982 52.2569C8.5293 52.7454 8.15174 52.8381 7.73465 52.8737L-5.17547 44.576V44.576Z" fill="black"/>
</g>
<defs>
<clipPath id="clip0_494_328">
<rect width="48" height="48" rx="8" fill="white"/>
</clipPath>
</defs>
</svg>
