<svg width="48" height="49" viewBox="0 0 48 49" fill="none" xmlns="http://www.w3.org/2000/svg">
<g clip-path="url(#clip0_830_1783)">
<mask id="mask0_830_1783" style="mask-type:luminance" maskUnits="userSpaceOnUse" x="0" y="0" width="48" height="49">
<path d="M8 0.5H40C44.4 0.5 48 4.1 48 8.5V40.5C48 44.9 44.4 48.5 40 48.5H8C3.6 48.5 0 44.9 0 40.5V8.5C0 4.1 3.6 0.5 8 0.5Z" fill="white"/>
</mask>
<g mask="url(#mask0_830_1783)">
<path d="M8 0.5H40C44.4 0.5 48 4.1 48 8.5V40.5C48 44.9 44.4 48.5 40 48.5H8C3.6 48.5 0 44.9 0 40.5V8.5C0 4.1 3.6 0.5 8 0.5Z" fill="white"/>
<path d="M0 14C0 11.1 0.8 8.79999 2.5 7.09999C4.2 5.39999 6.5 4.59999 9.5 4.59999H29.2C31.1 4.59999 32.6 4.89999 33.7 5.49999C34.8 6.09999 35.5 6.89999 36 7.99999C36.5 6.79999 37.3 5.89999 38.4 5.29999C39.5 4.59999 41 4.29999 43 4.29999H47.9V9.89999H44.4C42.9 9.89999 41.8 10.2 41.2 10.8C40.6 11.4 40.3 12.5 40.3 14.3V18.5H48V24H0V14ZM32.1 18.2V14.4C32.1 12.7 31.8 11.6 31.1 10.9C30.4 10.3 29.3 9.99999 27.8 9.99999H10.1C6.9 9.99999 5.3 11.5 5.3 14.4V18.2H32.1Z" fill="black"/>
<path d="M47.8 44.8H0V39.3H7.7V35.1C7.7 33.4 7.4 32.2 6.8 31.6C6.2 31 5.1 30.7 3.6 30.7H0V25.1H4.9C6.9 25.1 8.4 25.4 9.5 26.1C10.6 26.8 11.4 27.7 11.9 28.8C12.4 27.7 13.2 26.9 14.2 26.3C15.3 25.7 16.7 25.4 18.7 25.4H38.4C41.4 25.4 43.7 26.2 45.4 27.9C47.1 29.6 47.9 31.9 47.9 34.8V44.8H47.8ZM42.5 39.3V35.5C42.5 32.6 40.9 31.1 37.7 31.1H20.1C18.6 31.1 17.4 31.4 16.8 32C16.1 32.6 15.8 33.8 15.8 35.4V39.2H42.5V39.3Z" fill="black"/>
</g>
</g>
<defs>
<clipPath id="clip0_830_1783">
<rect width="48" height="48" fill="white" transform="translate(0 0.5)"/>
</clipPath>
</defs>
</svg>
