<svg width="48" height="48" viewBox="0 0 48 48" fill="none" xmlns="http://www.w3.org/2000/svg">
<rect x="0.5" y="0.5" width="47" height="47" rx="5.5" stroke="#D9D9D9"/>
<path d="M22.0408 31.0001V24.9768H18.8299C18.8308 24.3503 18.8763 23.7247 18.9661 23.1046C19.0448 22.5108 19.2193 21.9335 19.483 21.3952C19.7123 20.9194 20.0473 20.5019 20.4626 20.1744C20.9038 19.8536 21.4408 19.6911 21.9864 19.7133V17.0001C21.0555 16.979 20.1355 17.2036 19.3197 17.6512C18.5671 18.0768 17.9243 18.6713 17.4423 19.3877C16.9322 20.1578 16.5636 21.0122 16.3538 21.911C16.1126 22.9151 15.9938 23.9446 16 24.977V31.0001H22.0408ZM32 31.0001V24.9768H28.7891C28.79 24.3503 28.8355 23.7247 28.9253 23.1046C29.0039 22.5108 29.1785 21.9335 29.4422 21.3952C29.6715 20.9194 30.0065 20.5019 30.4218 20.1744C30.8629 19.8536 31.4 19.6911 31.9456 19.7133V17.0001C31.0146 16.979 30.0947 17.2036 29.2789 17.6512C28.5262 18.0768 27.8834 18.6713 27.4012 19.3877C26.8912 20.1578 26.5226 21.0122 26.3128 21.911C26.0717 22.9151 25.953 23.9446 25.9592 24.977V31.0001H32Z" fill="white"/>
</svg>
