<svg width="218" height="75" viewBox="0 0 218 75" fill="none" xmlns="http://www.w3.org/2000/svg">
<path d="M60.2026 47.1375C60.2026 48.9007 59.9013 50.4829 59.2985 51.8693C58.7108 53.2557 57.882 54.4311 56.8271 55.4106C55.7722 56.3902 54.5516 57.1285 53.1351 57.6258C51.7337 58.1231 50.2418 58.3793 48.6595 58.3793C47.0772 58.3793 45.525 58.1231 44.1236 57.6258C42.7221 57.1285 41.5015 56.3902 40.4768 55.4106C39.4521 54.4311 38.6383 53.2557 38.0356 51.8693C37.4328 50.4829 37.1465 48.9157 37.1465 47.1375V11.5738C37.1465 9.81067 37.4328 8.24346 38.0356 6.85708C38.6383 5.47069 39.437 4.31035 40.4768 3.34591C41.5015 2.39654 42.7221 1.64307 44.1236 1.11564C45.525 0.588212 47.0471 0.332031 48.6595 0.332031C50.2719 0.332031 51.7337 0.588212 53.1351 1.11564C54.5366 1.64307 55.7722 2.38147 56.8271 3.34591C57.882 4.29528 58.6957 5.47069 59.2985 6.85708C59.9013 8.24346 60.2026 9.81067 60.2026 11.5738V47.1375ZM43.6715 47.0622C43.6715 48.6897 44.1387 49.9103 45.073 50.7542C45.9922 51.583 47.2128 52.005 48.6746 52.005C50.1363 52.005 51.3569 51.583 52.2912 50.7542C53.2255 49.9254 53.6927 48.6897 53.6927 47.0622V11.6341C53.6927 10.0066 53.2255 8.78596 52.2912 7.94207C51.3569 7.11325 50.1664 6.69131 48.6746 6.69131C47.1827 6.69131 45.9922 7.11325 45.073 7.94207C44.1387 8.78596 43.6715 10.0066 43.6715 11.6341V47.0622Z" fill="white"/>
<path d="M86.3936 1.34131C89.8294 1.34131 92.5419 2.32082 94.516 4.26477C96.49 6.22379 97.4846 8.93627 97.4846 12.4173V20.2232C97.4846 22.5138 97.1531 24.292 96.49 25.5578C95.827 26.8236 94.7872 27.7429 93.4159 28.3155C94.953 28.8881 96.1133 29.8375 96.9271 31.1787C97.7408 32.5199 98.1477 34.4186 98.1477 36.9051V45.8563C98.1477 49.5784 97.138 52.4265 95.1489 54.4157C93.1446 56.3898 90.4322 57.3844 86.9813 57.3844H75.0312V1.34131H86.4086H86.3936ZM81.4508 25.6784H86.0168C87.8402 25.6784 89.1211 25.3016 89.8897 24.5331C90.6582 23.7645 91.0349 22.4083 91.0349 20.4493V13.216C91.0349 11.4529 90.6281 10.0665 89.8143 9.05683C89.0006 8.06225 87.6895 7.54989 85.8812 7.54989H81.4357V25.6633L81.4508 25.6784ZM81.4508 51.1607H86.4538C89.8897 51.1607 91.6076 49.2469 91.6076 45.4343V36.8448C91.6076 34.8406 91.2308 33.424 90.4623 32.5801C89.6937 31.7513 88.3526 31.3294 86.4538 31.3294H81.4508V51.1607Z" fill="white"/>
<path d="M118.385 47.1371C118.385 48.7646 118.822 49.9852 119.711 50.7839C120.585 51.5977 121.745 51.9895 123.177 51.9895C124.608 51.9895 125.829 51.5826 126.824 50.7839C127.818 49.9702 128.33 48.7495 128.33 47.1371V32.2486H122.74V26.3112H134.057V57.3692H129.973L129.687 54.9431C128.783 55.9527 127.682 56.7665 126.402 57.4144C125.121 58.0624 123.629 58.3789 121.971 58.3789C119.108 58.3789 116.727 57.3994 114.858 55.4102C112.975 53.4361 112.025 50.7236 112.025 47.2878V11.4378C112.025 9.71984 112.297 8.18276 112.854 6.82652C113.397 5.47027 114.165 4.29486 115.175 3.31535C116.169 2.33584 117.375 1.59744 118.761 1.10015C120.133 0.602859 121.67 0.34668 123.342 0.34668C126.628 0.34668 129.28 1.34126 131.284 3.31535C133.288 5.3045 134.283 8.00193 134.283 11.4378V13.3064H128.195V11.5884C128.195 9.96095 127.758 8.74032 126.869 7.94165C125.98 7.1279 124.834 6.72103 123.403 6.72103C121.881 6.72103 120.66 7.1279 119.756 7.94165C118.852 8.75539 118.4 9.96095 118.4 11.5884V47.1522L118.385 47.1371Z" fill="white"/>
<path d="M163.036 1.34131L172.771 57.3844H166.397L165.101 49.2921H154.657L153.437 57.3844H147.062L156.511 1.34131H163.021H163.036ZM155.516 43.7767H164.257L159.826 15.7175L155.531 43.7767H155.516Z" fill="white"/>
<path d="M193.099 1.34131L201.825 45.7809L211.062 1.34131H217.647V57.3844H211.77V21.2329L204.914 57.3844H198.826L191.818 20.7356V57.3844H185.941V1.34131H193.099Z" fill="white"/>
<path d="M11.6637 0C15.1749 0 17.9476 0.994579 19.9669 3.01388C21.9862 5.01811 23.011 7.80594 23.011 11.3623V34.9459C23.011 37.2365 22.6644 39.0297 21.9863 40.2955C21.3081 41.5614 20.2985 42.4957 18.9724 43.0834C20.3889 43.6711 21.4889 44.6205 22.2726 45.9466C23.0562 47.2727 23.448 49.0961 23.448 51.4469V57.3842H16.7873V51.04C16.7873 49.2317 16.4256 47.9508 15.7174 47.1973C15.0091 46.4439 13.6378 46.0671 11.5733 46.0671H6.6004V57.3842H0V0.0150726H11.6487L11.6637 0ZM6.6004 40.6271H11.1514C13.1556 40.6271 14.5269 40.2202 15.2954 39.4215C16.0489 38.6078 16.4256 37.2817 16.4256 35.4281V12.161C16.4256 8.30323 14.6625 6.37436 11.1514 6.37436H6.6004V40.6271Z" fill="white"/>
<path d="M5.01811 72.7399C5.01811 72.1371 4.6263 71.7905 3.43582 71.3233C2.0193 70.7658 1.32611 70.2685 1.32611 69.2588C1.32611 67.9779 2.50152 67.0286 4.17423 67.0286C5.3195 67.0286 6.08803 67.4656 6.61546 67.9026C6.73602 67.993 6.81137 68.0985 6.81137 68.2643C6.81137 68.5054 6.61547 68.6862 6.38943 68.6862C6.28394 68.6862 6.17844 68.6561 6.08802 68.5656C5.56059 68.0683 4.92768 67.7971 4.11394 67.7971C2.95359 67.7971 2.26041 68.4451 2.26041 69.1533C2.26041 69.7712 2.75771 70.1027 3.96326 70.5849C5.28936 71.0822 5.96749 71.6247 5.96749 72.6193C5.96749 73.9756 4.68659 74.9551 3.04402 74.9551C1.89875 74.9551 0.889095 74.5934 0.165764 73.8098C0.0753479 73.7194 0 73.5837 0 73.4481C0 73.1919 0.180839 73.0111 0.40688 73.0111C0.542504 73.0111 0.647992 73.0714 0.738408 73.1618C1.35625 73.8399 2.04943 74.1715 3.10429 74.1715C4.21942 74.1715 5.04825 73.5687 5.04825 72.7248L5.01811 72.7399Z" fill="white"/>
<path d="M7.29297 72.423C7.29297 70.6448 8.83006 69.0173 10.6535 69.0173C12.2207 69.0173 13.2605 70.0873 13.2605 71.5641C13.2605 73.3874 11.6782 74.9697 9.89999 74.9697C8.33277 74.9697 7.30805 73.8847 7.30805 72.4079L7.29297 72.423ZM12.3714 71.6093C12.3714 70.4489 11.648 69.7708 10.5781 69.7708C9.26707 69.7708 8.13685 71.0668 8.13685 72.3929C8.13685 73.5532 8.86018 74.2163 9.93011 74.2163C11.211 74.2163 12.3714 72.9655 12.3714 71.6093Z" fill="white"/>
<path d="M15.0109 74.4874C14.9355 74.7587 14.7697 74.9094 14.5437 74.9094C14.2724 74.9094 14.1217 74.6984 14.1971 74.3819L16.126 67.1637C16.2013 66.9075 16.3671 66.7568 16.6082 66.7568C16.8795 66.7568 17.0452 66.9678 16.9397 67.2843L15.0109 74.4874Z" fill="white"/>
<path d="M21.0056 74.4877L21.1563 73.9301C20.6289 74.5178 20.0261 74.985 19.1521 74.985C18.0671 74.985 17.3438 74.2918 17.3438 73.2219C17.3438 72.9506 17.404 72.6341 17.4794 72.3328L18.2178 69.5148C18.2931 69.2586 18.474 69.1079 18.6849 69.1079C18.9712 69.1079 19.1069 69.3038 19.0315 69.6353L18.2931 72.393C18.2479 72.5889 18.2178 72.8451 18.2178 73.041C18.2178 73.7945 18.7151 74.2315 19.4836 74.2315C20.3727 74.2315 21.2467 73.478 21.5481 72.378L22.3016 69.5299C22.3769 69.2737 22.5427 69.123 22.7687 69.123C23.04 69.123 23.2057 69.3189 23.1153 69.6504L21.8344 74.5028C21.7742 74.774 21.5933 74.9247 21.3522 74.9247C21.1111 74.9247 20.9604 74.7439 20.9905 74.5028L21.0056 74.4877Z" fill="white"/>
<path d="M26.5219 74.9844C25.1807 74.9844 23.9902 74.0652 23.9902 72.4979C23.9902 70.6293 25.5424 69.032 27.3507 69.032C28.4056 69.032 29.0385 69.5142 29.4001 70.0416C29.4755 70.132 29.5508 70.2526 29.5508 70.3732C29.5508 70.5841 29.37 70.765 29.159 70.765C29.0234 70.765 28.9028 70.7047 28.8124 70.5992C28.4809 70.117 28.0288 69.7855 27.3055 69.7855C26.0246 69.7855 24.8793 71.0513 24.8793 72.4829C24.8793 73.6131 25.678 74.246 26.5822 74.246C27.1397 74.246 27.622 74.035 28.0891 73.6583C28.1795 73.598 28.2699 73.5528 28.3754 73.5528C28.5864 73.5528 28.7371 73.7186 28.7371 73.9145C28.7371 74.035 28.6919 74.1254 28.6015 74.2158C28.0288 74.6981 27.3808 74.9995 26.552 74.9995L26.5219 74.9844Z" fill="white"/>
<path d="M30.8928 74.4876C30.8174 74.7589 30.6516 74.9096 30.4105 74.9096C30.1393 74.9096 29.9886 74.6986 30.079 74.3821L31.375 69.5147C31.4503 69.2585 31.6161 69.1078 31.8421 69.1078C32.1285 69.1078 32.2791 69.3037 32.1887 69.6353L30.8928 74.4876ZM32.2791 67.9626C31.9778 67.9626 31.7969 67.7817 31.8421 67.5256L31.9024 67.2995C31.9627 67.0584 32.1887 66.9077 32.46 66.9077C32.7614 66.9077 32.9422 67.0885 32.897 67.3447L32.8367 67.5708C32.7764 67.827 32.5504 67.9626 32.2791 67.9626Z" fill="white"/>
<path d="M33.123 72.423C33.123 70.6448 34.6601 69.0173 36.4835 69.0173C38.0508 69.0173 39.0905 70.0873 39.0905 71.5641C39.0905 73.3874 37.5083 74.9697 35.7301 74.9697C34.1629 74.9697 33.1381 73.8847 33.1381 72.4079L33.123 72.423ZM38.2014 71.6093C38.2014 70.4489 37.4781 69.7708 36.4082 69.7708C35.0971 69.7708 33.9669 71.0668 33.9669 72.3929C33.9669 73.5532 34.6903 74.2163 35.7602 74.2163C37.026 74.2163 38.1864 72.9655 38.1864 71.6093H38.2014Z" fill="white"/>
<path d="M42.0747 69.5142L41.939 70.0868C42.4514 69.4991 43.0542 69.032 43.9282 69.032C45.0283 69.032 45.7516 69.7252 45.7516 70.7951C45.7516 71.0663 45.6913 71.3828 45.6009 71.6842L44.8474 74.4871C44.7871 74.7583 44.6214 74.909 44.3803 74.909C44.109 74.909 43.9433 74.6981 44.0337 74.3816L44.757 71.6239C44.8173 71.4431 44.8474 71.1718 44.8474 70.991C44.8474 70.2375 44.3652 69.8005 43.5665 69.8005C42.6925 69.8005 41.8034 70.5691 41.502 71.639L40.7485 74.5022C40.6883 74.7734 40.5074 74.9241 40.2663 74.9241C39.9951 74.9241 39.8444 74.7131 39.9197 74.3967L41.2308 69.5293C41.2911 69.2731 41.4568 69.1224 41.6979 69.1224C41.939 69.1224 42.0897 69.3032 42.0596 69.5293L42.0747 69.5142Z" fill="white"/>
<path d="M51.026 73.7189C51.1014 73.6737 51.2219 73.6285 51.3123 73.6285C51.5082 73.6285 51.659 73.7641 51.659 73.9751C51.659 74.0956 51.5987 74.2011 51.4932 74.2915C50.9507 74.7135 50.2876 74.9998 49.4438 74.9998C47.9368 74.9998 46.9121 74.0203 46.9121 72.5736C46.9121 70.8406 48.3286 69.0474 50.2273 69.0474C51.674 69.0474 52.4275 70.0419 52.4275 71.2324C52.4275 71.5037 52.3823 71.7599 52.3521 71.9256C52.2919 72.1667 52.1562 72.3174 51.885 72.3174H47.7711C47.7711 72.4078 47.7711 72.4983 47.7711 72.5887C47.7711 73.5983 48.4492 74.2614 49.489 74.2614C50.0917 74.2614 50.589 74.0956 51.026 73.7339V73.7189ZM51.5535 71.6544C51.5836 71.564 51.6138 71.4133 51.6138 71.2174C51.6138 70.4338 51.1767 69.7406 50.1972 69.7406C49.067 69.7406 48.2081 70.5995 47.8916 71.6544H51.5685H51.5535Z" fill="white"/>
<path d="M56.6161 73.3121C56.6161 72.9354 56.3599 72.6641 55.5311 72.3477C54.5064 71.9559 53.9187 71.5791 53.9187 70.7804C53.9187 69.816 54.7626 69.0173 56.0887 69.0173C56.797 69.0173 57.5354 69.3187 57.9272 69.605C58.0628 69.6804 58.1381 69.7859 58.1381 69.9516C58.1381 70.1626 57.9723 70.3284 57.7614 70.3284C57.671 70.3284 57.5806 70.2832 57.5203 70.238C57.0532 69.9366 56.5709 69.7256 56.0134 69.7256C55.2147 69.7256 54.7777 70.1626 54.7777 70.6298C54.7777 71.0065 55.0188 71.2476 55.9079 71.5942C56.9326 72.0161 57.46 72.423 57.46 73.1614C57.46 74.2163 56.4956 74.9547 55.2749 74.9547C54.4763 74.9547 53.6926 74.6834 53.0597 74.1711C52.9392 74.0806 52.8789 73.9601 52.8789 73.8245C52.8789 73.6135 53.0447 73.4327 53.2406 73.4327C53.346 73.4327 53.4515 73.4929 53.542 73.5532C54.1297 74.0204 54.7174 74.2163 55.3503 74.2163C55.9832 74.2163 56.601 73.8395 56.601 73.2669L56.6161 73.3121Z" fill="white"/>
<path d="M66.3034 73.7189C66.3034 73.7189 66.4842 73.6285 66.5897 73.6285C66.8007 73.6285 66.9363 73.7641 66.9363 73.9751C66.9363 74.0956 66.876 74.2011 66.7706 74.2915C66.2281 74.7135 65.565 74.9998 64.7211 74.9998C63.2142 74.9998 62.1895 74.0203 62.1895 72.5736C62.1895 70.8406 63.606 69.0474 65.5047 69.0474C66.9514 69.0474 67.7199 70.0419 67.7199 71.2324C67.7199 71.5037 67.6747 71.7599 67.6446 71.9256C67.5843 72.1667 67.4487 72.3174 67.1774 72.3174H63.0635C63.0635 72.4078 63.0635 72.4983 63.0635 72.5887C63.0635 73.5983 63.7416 74.2614 64.7814 74.2614C65.3842 74.2614 65.8815 74.0956 66.3335 73.7339L66.3034 73.7189ZM66.8309 71.6544C66.861 71.564 66.8911 71.4133 66.8911 71.2174C66.8911 70.4338 66.4541 69.7406 65.4595 69.7406C64.3293 69.7406 63.4704 70.5995 63.1539 71.6544H66.8309Z" fill="white"/>
<path d="M70.616 69.5142L70.4803 70.0868C70.9927 69.4991 71.5955 69.032 72.4544 69.032C73.5545 69.032 74.2779 69.7252 74.2779 70.7951C74.2779 71.0663 74.2176 71.3828 74.1272 71.6842L73.3737 74.4871C73.3134 74.7583 73.1477 74.909 72.9065 74.909C72.6353 74.909 72.4695 74.6981 72.5599 74.3816L73.2833 71.6239C73.3436 71.4431 73.3737 71.1718 73.3737 70.991C73.3737 70.2375 72.8915 69.8005 72.0928 69.8005C71.2037 69.8005 70.3297 70.5691 70.0283 71.639L69.2748 74.5022C69.2145 74.7734 69.0337 74.9241 68.7926 74.9241C68.5364 74.9241 68.3707 74.7131 68.446 74.3967L69.742 69.5293C69.8022 69.2731 69.968 69.1224 70.2091 69.1224C70.4502 69.1224 70.616 69.3032 70.5708 69.5293L70.616 69.5142Z" fill="white"/>
<path d="M81.375 74.487C81.2996 74.7582 81.1188 74.9089 80.8927 74.9089C80.6366 74.9089 80.4407 74.713 80.5311 74.3664L82.2641 67.9469H80.1393C79.9132 67.9469 79.7324 67.766 79.7324 67.5551C79.7324 67.3441 79.9132 67.1482 80.1393 67.1482H85.4889C85.715 67.1482 85.8958 67.329 85.8958 67.5551C85.8958 67.7811 85.715 67.9469 85.4889 67.9469H83.1381L81.3901 74.487H81.375Z" fill="white"/>
<path d="M87.9152 74.4722L88.0659 73.9599C87.5385 74.5626 86.8303 74.9846 85.9412 74.9846C84.9767 74.9846 84.1328 74.4119 84.1328 73.4023C84.1328 72.1214 85.2028 71.3378 86.6645 71.3378C87.418 71.3378 88.1413 71.5036 88.6838 71.6392L88.7139 71.5186C88.7591 71.3529 88.7893 71.1419 88.7893 70.9912C88.7893 70.2528 88.292 69.8309 87.2371 69.8309C86.7248 69.8309 86.2727 69.9363 85.9261 70.0268C85.8658 70.0569 85.8055 70.0569 85.7452 70.0569C85.5493 70.0569 85.3987 69.9062 85.3987 69.7103C85.3987 69.5295 85.5041 69.3939 85.685 69.3486C86.2275 69.1678 86.7398 69.0774 87.3577 69.0774C88.7893 69.0774 89.588 69.7404 89.588 70.8405C89.588 71.0816 89.5427 71.3529 89.4674 71.6241L88.7139 74.4873C88.6386 74.7585 88.4728 74.9092 88.2468 74.9092C87.9454 74.9092 87.855 74.6983 87.8851 74.4722H87.9152ZM88.4276 72.6036L88.5482 72.2118C88.0509 72.0611 87.4029 71.9556 86.6946 71.9556C85.685 71.9556 84.9918 72.4981 84.9918 73.2818C84.9918 73.8996 85.474 74.3065 86.1974 74.3065C87.1618 74.3065 88.1563 73.6133 88.4276 72.6036Z" fill="white"/>
<path d="M92.4359 70.6145C93.0387 69.6651 93.9127 69.0774 94.6813 69.0774C94.9375 69.0774 95.0882 69.2281 95.0882 69.4692C95.0882 69.7254 94.9375 69.8911 94.6059 69.9514C93.4456 70.1172 92.3455 71.0063 91.9236 72.6036L91.4112 74.4873C91.3359 74.7585 91.1701 74.9092 90.9441 74.9092C90.6728 74.9092 90.5221 74.6983 90.5975 74.3818L91.9085 69.5144C91.9688 69.2582 92.1345 69.1075 92.3757 69.1075C92.6469 69.1075 92.7976 69.3034 92.7223 69.6048L92.4661 70.6145H92.4359Z" fill="white"/>
<path d="M95.9151 74.4876C95.8398 74.7589 95.674 74.9096 95.448 74.9096C95.1767 74.9096 95.026 74.6986 95.1014 74.3821L96.3974 69.5147C96.4727 69.2585 96.6385 69.1078 96.8796 69.1078C97.1509 69.1078 97.3166 69.3037 97.2262 69.6353L95.9302 74.4876H95.9151ZM97.2865 67.9626C96.9851 67.9626 96.8042 67.7817 96.8494 67.5256L96.9097 67.2995C96.9851 67.0584 97.1961 66.9077 97.4824 66.9077C97.7838 66.9077 97.9646 67.0885 97.9043 67.3447L97.844 67.5708C97.7837 67.827 97.5577 67.9626 97.2865 67.9626Z" fill="white"/>
<path d="M102.594 71.6242C102.655 71.4434 102.685 71.1721 102.685 70.9913C102.685 70.2529 102.233 69.8008 101.494 69.8008C100.665 69.8008 99.8065 70.5844 99.5202 71.6393L98.7667 74.5025C98.7064 74.7737 98.5256 74.9244 98.2996 74.9244C98.0283 74.9244 97.8776 74.7135 97.9529 74.397L99.264 69.5296C99.3243 69.2734 99.49 69.1227 99.7311 69.1227C99.9722 69.1227 100.123 69.3035 100.093 69.5296L99.9572 70.1022C100.47 69.5145 101.012 69.0474 101.856 69.0474C102.805 69.0474 103.318 69.6652 103.483 70.3433C103.981 69.5597 104.764 69.0474 105.774 69.0474C106.784 69.0474 107.507 69.7556 107.507 70.8105C107.507 71.0817 107.417 71.3982 107.356 71.6996L106.603 74.5025C106.542 74.7737 106.362 74.9244 106.136 74.9244C105.864 74.9244 105.714 74.7135 105.804 74.397L106.543 71.6393C106.588 71.4585 106.618 71.1872 106.618 71.0064C106.618 70.268 106.181 69.8159 105.442 69.8159C104.614 69.8159 103.755 70.5995 103.468 71.6544L102.7 74.5176C102.64 74.7888 102.474 74.9395 102.248 74.9395C101.961 74.9395 101.811 74.7285 101.901 74.4121L102.624 71.6544L102.594 71.6242Z" fill="white"/>
<path d="M112.102 74.4722L112.238 73.9599C111.71 74.5626 111.017 74.9846 110.113 74.9846C109.149 74.9846 108.305 74.4119 108.305 73.4023C108.305 72.1214 109.375 71.3378 110.836 71.3378C111.59 71.3378 112.313 71.5036 112.856 71.6392L112.886 71.5186C112.931 71.3529 112.976 71.1419 112.976 70.9912C112.976 70.2528 112.464 69.8309 111.424 69.8309C110.912 69.8309 110.46 69.9363 110.113 70.0268C110.053 70.0569 109.992 70.0569 109.932 70.0569C109.736 70.0569 109.586 69.9062 109.586 69.7103C109.586 69.5295 109.691 69.3939 109.872 69.3486C110.414 69.1678 110.927 69.0774 111.545 69.0774C112.976 69.0774 113.775 69.7404 113.775 70.8405C113.775 71.0816 113.73 71.3529 113.654 71.6241L112.901 74.4873C112.841 74.7585 112.66 74.9092 112.434 74.9092C112.132 74.9092 112.042 74.6983 112.072 74.4722H112.102ZM112.615 72.6036L112.735 72.2118C112.238 72.0611 111.59 71.9556 110.882 71.9556C109.872 71.9556 109.179 72.4981 109.179 73.2818C109.179 73.8996 109.646 74.3065 110.399 74.3065C111.349 74.3065 112.358 73.6133 112.63 72.6036H112.615Z" fill="white"/>
<path d="M118.175 73.3121C118.175 72.9354 117.919 72.6641 117.09 72.3477C116.065 71.9559 115.477 71.5791 115.477 70.7804C115.477 69.816 116.321 69.0173 117.647 69.0173C118.356 69.0173 119.094 69.3187 119.486 69.605C119.621 69.6804 119.697 69.7859 119.697 69.9516C119.697 70.1626 119.531 70.3284 119.32 70.3284C119.23 70.3284 119.139 70.2832 119.079 70.238C118.612 69.9366 118.114 69.7256 117.557 69.7256C116.758 69.7256 116.321 70.1626 116.321 70.6298C116.321 71.0065 116.547 71.2476 117.466 71.5942C118.491 72.0161 119.019 72.423 119.019 73.1614C119.019 74.2163 118.054 74.9547 116.834 74.9547C116.035 74.9547 115.251 74.6834 114.618 74.1711C114.498 74.0806 114.438 73.9601 114.438 73.8245C114.438 73.6135 114.603 73.4327 114.799 73.4327C114.905 73.4327 115.01 73.4929 115.101 73.5532C115.688 74.0204 116.276 74.2163 116.909 74.2163C117.542 74.2163 118.16 73.8395 118.16 73.2669L118.175 73.3121Z" fill="white"/>
</svg>
