<svg width="166" height="82" viewBox="0 0 166 82" fill="none" xmlns="http://www.w3.org/2000/svg">
<g clip-path="url(#clip0_494_288)">
<path d="M82.3274 0H0V82H82.3274V0Z" fill="#E5352B"/>
<path d="M25.3203 19.6689C25.3203 17.7331 25.8742 16.211 26.977 15.0929C28.0848 13.9796 29.6229 13.423 31.5912 13.423H44.6225C45.8935 13.423 46.8727 13.6102 47.575 13.9895C48.2772 14.3638 48.7916 14.9155 49.113 15.6396C49.4345 14.8613 49.9636 14.2555 50.6906 13.8269C51.4176 13.3984 52.4314 13.1816 53.7222 13.1816H57.0011V16.8514H54.6816C53.6826 16.8514 52.9754 17.0484 52.5551 17.4375C52.1396 17.8267 51.927 18.5853 51.927 19.7133V22.452H57.0011V26.0774H25.3203V19.6689ZM46.576 22.4471V19.9497C46.576 18.8463 46.3534 18.0878 45.9083 17.674C45.4633 17.2553 44.7264 17.0484 43.7027 17.0484H32.0363C29.9048 17.0484 28.8415 18.0139 28.8415 19.9497V22.4471H46.5809H46.576Z" fill="white"/>
<path d="M57.006 40.5593H25.3203V36.9339H30.3944V34.1952C30.3944 33.0671 30.1867 32.3086 29.7663 31.9194C29.3459 31.5303 28.6387 31.3382 27.6447 31.3382H25.3203V27.6685H28.5992C29.8949 27.6685 30.9038 27.8852 31.6357 28.3137C32.3627 28.7423 32.8918 29.3482 33.2133 30.1264C33.5348 29.3974 34.0491 28.8507 34.7513 28.4714C35.4536 28.097 36.4378 27.9049 37.7038 27.9049H50.7302C52.6985 27.9049 54.2365 28.4615 55.3443 29.5797C56.4521 30.6978 57.006 32.2199 57.006 34.1558V40.5642V40.5593ZM53.4848 36.9339V34.4365C53.4848 32.5007 52.4166 31.5352 50.29 31.5352H38.6187C37.595 31.5352 36.8581 31.7421 36.413 32.1608C35.9679 32.5795 35.7454 33.3381 35.7454 34.4365V36.9339H53.4848Z" fill="white"/>
<path d="M25.3203 48.46C25.3203 46.5241 25.8742 45.0021 26.977 43.8839C28.0848 42.7658 29.6229 42.2091 31.5912 42.2091H44.6225C45.8935 42.2091 46.8727 42.3963 47.575 42.7756C48.2772 43.15 48.7916 43.7017 49.113 44.4258C49.4345 43.6475 49.9636 43.0416 50.6906 42.6131C51.4176 42.1845 52.4314 41.9678 53.7222 41.9678H57.0011V45.6375H54.6816C53.6826 45.6375 52.9754 45.8345 52.5551 46.2237C52.1396 46.6128 51.927 47.3714 51.927 48.4994V51.2382H57.0011V54.8685H25.3203V48.46ZM46.576 51.2382V48.7408C46.576 47.6374 46.3534 46.8837 45.9083 46.465C45.4633 46.0513 44.7264 45.8395 43.7027 45.8395H32.0363C29.9048 45.8395 28.8415 46.8049 28.8415 48.7408V51.2382H46.5809H46.576Z" fill="white"/>
<path d="M57.006 68.8187H25.3203V65.1883H30.3944V62.4447C30.3944 61.3167 30.1867 60.5581 29.7663 60.1689C29.3459 59.7798 28.6387 59.5877 27.6447 59.5877H25.3203V55.918H28.5992C29.8949 55.918 30.9038 56.1347 31.6357 56.5633C32.3627 56.9918 32.8918 57.5977 33.2133 58.376C33.5348 57.6519 34.0491 57.1002 34.7513 56.7258C35.4536 56.3465 36.4378 56.1593 37.7038 56.1593H50.7302C52.6985 56.1593 54.2365 56.716 55.3443 57.8292C56.4521 58.9473 57.006 60.4694 57.006 62.4053V68.8137V68.8187ZM53.4848 65.1883V62.691C53.4848 60.7551 52.4166 59.7897 50.29 59.7897H38.6187C37.595 59.7897 36.8581 59.9965 36.413 60.4152C35.9679 60.829 35.7454 61.5925 35.7454 62.691V65.1883H53.4848Z" fill="white"/>
<path d="M114.33 44.1502C114.33 44.7265 114.231 45.2437 114.034 45.6969C113.841 46.15 113.569 46.5343 113.222 46.8544C112.876 47.1746 112.476 47.416 112.011 47.5785C111.551 47.7411 111.061 47.8248 110.542 47.8248C110.023 47.8248 109.513 47.7411 109.053 47.5785C108.593 47.416 108.193 47.1746 107.857 46.8544C107.52 46.5343 107.253 46.15 107.055 45.6969C106.858 45.2437 106.764 44.7314 106.764 44.1502V32.5252C106.764 31.9489 106.858 31.4366 107.055 30.9835C107.253 30.5303 107.515 30.151 107.857 29.8357C108.193 29.5254 108.593 29.2791 109.053 29.1067C109.513 28.9343 110.013 28.8506 110.542 28.8506C111.071 28.8506 111.551 28.9343 112.011 29.1067C112.471 29.2791 112.876 29.5205 113.222 29.8357C113.569 30.1461 113.836 30.5303 114.034 30.9835C114.231 31.4366 114.33 31.9489 114.33 32.5252V44.1502ZM108.905 44.1255C108.905 44.6575 109.058 45.0565 109.365 45.3324C109.667 45.6033 110.067 45.7412 110.547 45.7412C111.027 45.7412 111.427 45.6033 111.734 45.3324C112.04 45.0614 112.194 44.6575 112.194 44.1255V32.5449C112.194 32.013 112.04 31.614 111.734 31.3381C111.427 31.0672 111.037 30.9293 110.547 30.9293C110.057 30.9293 109.667 31.0672 109.365 31.3381C109.058 31.614 108.905 32.013 108.905 32.5449V44.1255Z" fill="#3D3D3C"/>
<path d="M122.924 29.1807C124.052 29.1807 124.942 29.5008 125.59 30.1363C126.238 30.7766 126.564 31.6633 126.564 32.8011V35.3527C126.564 36.1014 126.455 36.6827 126.238 37.0964C126.02 37.5102 125.679 37.8107 125.229 37.9979C125.733 38.185 126.114 38.4954 126.381 38.9338C126.648 39.3722 126.782 39.9928 126.782 40.8056V43.7315C126.782 44.9482 126.45 45.8792 125.798 46.5294C125.14 47.1747 124.25 47.4998 123.117 47.4998H119.195V29.1807H122.929H122.924ZM121.302 37.1359H122.801C123.399 37.1359 123.819 37.0127 124.072 36.7615C124.324 36.5103 124.447 36.0669 124.447 35.4266V33.0622C124.447 32.4859 124.314 32.0327 124.047 31.7027C123.78 31.3776 123.35 31.2101 122.756 31.2101H121.297V37.1309L121.302 37.1359ZM121.302 45.4654H122.944C124.072 45.4654 124.635 44.8398 124.635 43.5936V40.7859C124.635 40.1307 124.512 39.6677 124.259 39.3919C124.007 39.121 123.567 38.983 122.944 38.983H121.302V45.4654Z" fill="#3D3D3C"/>
<path d="M133.425 44.1501C133.425 44.6821 133.568 45.0811 133.86 45.3422C134.147 45.6082 134.528 45.7362 134.998 45.7362C135.467 45.7362 135.868 45.6032 136.194 45.3422C136.521 45.0762 136.689 44.6772 136.689 44.1501V39.2834H134.854V37.3426H138.568V47.4947H137.228L137.134 46.7017C136.837 47.0317 136.476 47.2977 136.056 47.5095C135.636 47.7213 135.146 47.8248 134.602 47.8248C133.662 47.8248 132.881 47.5046 132.268 46.8544C131.649 46.2091 131.338 45.3225 131.338 44.1994V32.4809C131.338 31.9193 131.427 31.4169 131.61 30.9736C131.788 30.5302 132.04 30.146 132.371 29.8259C132.698 29.5057 133.094 29.2643 133.549 29.1018C133.999 28.9392 134.503 28.8555 135.052 28.8555C136.13 28.8555 137 29.1806 137.658 29.8259C138.316 30.4761 138.642 31.3578 138.642 32.4809V33.0917H136.644V32.5301C136.644 31.9981 136.501 31.5991 136.209 31.3381C135.917 31.0721 135.542 30.9391 135.072 30.9391C134.572 30.9391 134.172 31.0721 133.875 31.3381C133.578 31.6041 133.43 31.9981 133.43 32.5301V44.155L133.425 44.1501Z" fill="#3D3D3C"/>
<path d="M148.078 29.1807L151.273 47.4998H149.181L148.756 44.8546H145.328L144.928 47.4998H142.836L145.937 29.1807H148.073H148.078ZM145.61 43.0518H148.479L147.025 33.8799L145.615 43.0518H145.61Z" fill="#3D3D3C"/>
<path d="M157.943 29.1807L160.806 43.7069L163.838 29.1807H165.999V47.4998H164.07V35.6827L161.82 47.4998H159.822L157.522 35.5202V47.4998H155.594V29.1807H157.943Z" fill="#3D3D3C"/>
<path d="M98.4001 28.7422C99.5524 28.7422 100.462 29.0673 101.125 29.7273C101.788 30.3825 102.124 31.2938 102.124 32.4563V40.1651C102.124 40.9139 102.01 41.5 101.788 41.9138C101.565 42.3276 101.234 42.633 100.799 42.8251C101.264 43.0172 101.625 43.3275 101.882 43.761C102.139 44.1945 102.267 44.7905 102.267 45.5589V47.4997H100.082V45.4259C100.082 44.8348 99.9628 44.4161 99.7304 44.1698C99.498 43.9235 99.0479 43.8004 98.3704 43.8004H96.7384V47.4997H94.5723V28.7471H98.3951L98.4001 28.7422ZM96.7384 42.0222H98.2319C98.8897 42.0222 99.3397 41.8892 99.5919 41.6281C99.8392 41.3621 99.9628 40.9286 99.9628 40.3228V32.7173C99.9628 31.4563 99.3842 30.8258 98.2319 30.8258H96.7384V42.0222Z" fill="#3D3D3C"/>
<path d="M112.301 52.5192C112.301 52.3222 112.173 52.2089 111.782 52.0562C111.317 51.8739 111.09 51.7114 111.09 51.3814C111.09 50.9627 111.475 50.6523 112.024 50.6523C112.4 50.6523 112.652 50.7952 112.825 50.938C112.865 50.9676 112.89 51.0021 112.89 51.0563C112.89 51.1351 112.825 51.1942 112.751 51.1942C112.717 51.1942 112.682 51.1843 112.652 51.1548C112.479 50.9922 112.271 50.9036 112.004 50.9036C111.624 50.9036 111.396 51.1154 111.396 51.3469C111.396 51.5488 111.559 51.6572 111.955 51.8148C112.39 51.9774 112.613 52.1547 112.613 52.4798C112.613 52.9231 112.192 53.2433 111.653 53.2433C111.277 53.2433 110.946 53.1251 110.709 52.869C110.679 52.8394 110.654 52.7951 110.654 52.7507C110.654 52.667 110.714 52.6079 110.788 52.6079C110.832 52.6079 110.867 52.6276 110.897 52.6571C111.099 52.8788 111.327 52.9872 111.673 52.9872C112.039 52.9872 112.311 52.7901 112.311 52.5143L112.301 52.5192Z" fill="#E5352B"/>
<path d="M113.049 52.4155C113.049 51.8342 113.553 51.3022 114.152 51.3022C114.666 51.3022 115.007 51.652 115.007 52.1347C115.007 52.7307 114.488 53.2479 113.904 53.2479C113.39 53.2479 113.054 52.8933 113.054 52.4106L113.049 52.4155ZM114.715 52.1495C114.715 51.7702 114.478 51.5485 114.127 51.5485C113.697 51.5485 113.326 51.9722 113.326 52.4056C113.326 52.7849 113.563 53.0016 113.914 53.0016C114.335 53.0016 114.715 52.5928 114.715 52.1495Z" fill="#E5352B"/>
<path d="M115.58 53.0904C115.555 53.1791 115.501 53.2283 115.427 53.2283C115.338 53.2283 115.288 53.1594 115.313 53.0559L115.946 50.6965C115.971 50.6127 116.025 50.5635 116.104 50.5635C116.193 50.5635 116.248 50.6324 116.213 50.7359L115.58 53.0904Z" fill="#E5352B"/>
<path d="M117.549 53.0905L117.599 52.9083C117.426 53.1004 117.228 53.2531 116.941 53.2531C116.585 53.2531 116.348 53.0265 116.348 52.6768C116.348 52.5881 116.367 52.4847 116.392 52.3862L116.634 51.465C116.659 51.3813 116.719 51.332 116.788 51.332C116.882 51.332 116.926 51.3961 116.902 51.5044L116.659 52.4059C116.644 52.4699 116.634 52.5536 116.634 52.6177C116.634 52.864 116.798 53.0068 117.05 53.0068C117.342 53.0068 117.629 52.7605 117.727 52.4009L117.975 51.47C117.999 51.3862 118.054 51.337 118.128 51.337C118.217 51.337 118.271 51.401 118.242 51.5094L117.821 53.0955C117.802 53.1841 117.742 53.2334 117.663 53.2334C117.584 53.2334 117.535 53.1743 117.544 53.0955L117.549 53.0905Z" fill="#E5352B"/>
<path d="M119.36 53.2528C118.92 53.2528 118.529 52.9523 118.529 52.4401C118.529 51.8293 119.039 51.3071 119.632 51.3071C119.978 51.3071 120.186 51.4648 120.305 51.6372C120.329 51.6667 120.354 51.7061 120.354 51.7455C120.354 51.8145 120.295 51.8736 120.226 51.8736C120.181 51.8736 120.142 51.8539 120.112 51.8194C120.003 51.6618 119.855 51.5534 119.617 51.5534C119.197 51.5534 118.821 51.9672 118.821 52.4351C118.821 52.8046 119.083 53.0115 119.38 53.0115C119.563 53.0115 119.721 52.9425 119.874 52.8194C119.904 52.7997 119.934 52.7849 119.968 52.7849C120.038 52.7849 120.087 52.8391 120.087 52.9031C120.087 52.9425 120.072 52.9721 120.043 53.0016C119.855 53.1592 119.642 53.2578 119.37 53.2578L119.36 53.2528Z" fill="#E5352B"/>
<path d="M120.793 53.0905C120.769 53.1791 120.714 53.2284 120.635 53.2284C120.546 53.2284 120.497 53.1594 120.526 53.056L120.952 51.465C120.976 51.3812 121.031 51.332 121.105 51.332C121.199 51.332 121.248 51.396 121.219 51.5044L120.793 53.0905ZM121.248 50.9576C121.149 50.9576 121.09 50.8985 121.105 50.8148L121.125 50.7409C121.144 50.6621 121.219 50.6128 121.308 50.6128C121.406 50.6128 121.466 50.6719 121.451 50.7556L121.431 50.8295C121.411 50.9133 121.337 50.9576 121.248 50.9576Z" fill="#E5352B"/>
<path d="M121.525 52.4155C121.525 51.8342 122.03 51.3022 122.628 51.3022C123.143 51.3022 123.484 51.652 123.484 52.1347C123.484 52.7307 122.965 53.2479 122.381 53.2479C121.867 53.2479 121.53 52.8933 121.53 52.4106L121.525 52.4155ZM123.192 52.1495C123.192 51.7702 122.955 51.5485 122.604 51.5485C122.173 51.5485 121.802 51.9722 121.802 52.4056C121.802 52.7849 122.04 53.0016 122.391 53.0016C122.806 53.0016 123.187 52.5928 123.187 52.1495H123.192Z" fill="#E5352B"/>
<path d="M124.464 51.4648L124.419 51.6519C124.587 51.4598 124.785 51.3071 125.072 51.3071C125.433 51.3071 125.67 51.5337 125.67 51.8834C125.67 51.9721 125.65 52.0756 125.621 52.1741L125.374 53.0903C125.354 53.1789 125.299 53.2282 125.22 53.2282C125.131 53.2282 125.077 53.1592 125.106 53.0558L125.344 52.1544C125.364 52.0953 125.374 52.0066 125.374 51.9475C125.374 51.7012 125.215 51.5583 124.953 51.5583C124.666 51.5583 124.375 51.8096 124.276 52.1593L124.028 53.0952C124.009 53.1839 123.949 53.2331 123.87 53.2331C123.781 53.2331 123.732 53.1642 123.756 53.0607L124.187 51.4697C124.206 51.3859 124.261 51.3367 124.34 51.3367C124.419 51.3367 124.469 51.3958 124.459 51.4697L124.464 51.4648Z" fill="#E5352B"/>
<path d="M127.401 52.839C127.426 52.8242 127.465 52.8095 127.495 52.8095C127.559 52.8095 127.609 52.8538 127.609 52.9228C127.609 52.9622 127.589 52.9966 127.554 53.0262C127.376 53.1641 127.159 53.2577 126.882 53.2577C126.387 53.2577 126.051 52.9375 126.051 52.4647C126.051 51.8982 126.516 51.312 127.139 51.312C127.614 51.312 127.861 51.6371 127.861 52.0263C127.861 52.1149 127.846 52.1987 127.836 52.2528C127.816 52.3317 127.772 52.3809 127.683 52.3809H126.333C126.333 52.4105 126.333 52.44 126.333 52.4696C126.333 52.7996 126.555 53.0163 126.896 53.0163C127.094 53.0163 127.257 52.9622 127.401 52.8439V52.839ZM127.574 52.1642C127.584 52.1346 127.594 52.0854 127.594 52.0213C127.594 51.7652 127.45 51.5386 127.129 51.5386C126.758 51.5386 126.476 51.8194 126.372 52.1642H127.579H127.574Z" fill="#E5352B"/>
<path d="M129.236 52.7061C129.236 52.583 129.152 52.4943 128.88 52.3909C128.544 52.2628 128.351 52.1396 128.351 51.8786C128.351 51.5633 128.628 51.3022 129.063 51.3022C129.296 51.3022 129.538 51.4008 129.667 51.4944C129.711 51.519 129.736 51.5535 129.736 51.6076C129.736 51.6766 129.681 51.7308 129.612 51.7308C129.582 51.7308 129.553 51.716 129.533 51.7012C129.38 51.6027 129.221 51.5338 129.038 51.5338C128.776 51.5338 128.633 51.6766 128.633 51.8293C128.633 51.9525 128.712 52.0313 129.004 52.1446C129.34 52.2825 129.513 52.4155 129.513 52.6568C129.513 53.0017 129.197 53.243 128.796 53.243C128.534 53.243 128.277 53.1544 128.069 52.9869C128.03 52.9573 128.01 52.9179 128.01 52.8736C128.01 52.8046 128.064 52.7455 128.128 52.7455C128.163 52.7455 128.198 52.7652 128.227 52.7849C128.42 52.9376 128.613 53.0016 128.821 53.0016C129.029 53.0016 129.231 52.8785 129.231 52.6913L129.236 52.7061Z" fill="#E5352B"/>
<path d="M132.415 52.839C132.415 52.839 132.474 52.8095 132.509 52.8095C132.578 52.8095 132.622 52.8538 132.622 52.9228C132.622 52.9622 132.603 52.9966 132.568 53.0262C132.39 53.1641 132.172 53.2577 131.895 53.2577C131.401 53.2577 131.064 52.9375 131.064 52.4647C131.064 51.8982 131.529 51.312 132.152 51.312C132.627 51.312 132.879 51.6371 132.879 52.0263C132.879 52.1149 132.865 52.1987 132.855 52.2528C132.835 52.3317 132.79 52.3809 132.701 52.3809H131.351C131.351 52.4105 131.351 52.44 131.351 52.4696C131.351 52.7996 131.574 53.0163 131.915 53.0163C132.113 53.0163 132.276 52.9622 132.424 52.8439L132.415 52.839ZM132.588 52.1642C132.598 52.1346 132.607 52.0854 132.607 52.0213C132.607 51.7652 132.464 51.5386 132.138 51.5386C131.767 51.5386 131.485 51.8194 131.381 52.1642H132.588Z" fill="#E5352B"/>
<path d="M133.829 51.4648L133.785 51.6519C133.953 51.4598 134.151 51.3071 134.433 51.3071C134.794 51.3071 135.031 51.5337 135.031 51.8834C135.031 51.9721 135.011 52.0756 134.982 52.1741L134.734 53.0903C134.715 53.1789 134.66 53.2282 134.581 53.2282C134.492 53.2282 134.438 53.1592 134.467 53.0558L134.705 52.1544C134.725 52.0953 134.734 52.0066 134.734 51.9475C134.734 51.7012 134.576 51.5583 134.314 51.5583C134.022 51.5583 133.736 51.8096 133.637 52.1593L133.389 53.0952C133.37 53.1839 133.31 53.2331 133.231 53.2331C133.147 53.2331 133.093 53.1642 133.117 53.0607L133.543 51.4697C133.562 51.3859 133.617 51.3367 133.696 51.3367C133.775 51.3367 133.829 51.3958 133.815 51.4697L133.829 51.4648Z" fill="#E5352B"/>
<path d="M137.361 53.0903C137.337 53.1789 137.277 53.2282 137.203 53.2282C137.119 53.2282 137.055 53.1642 137.084 53.0509L137.653 50.9525H136.956C136.882 50.9525 136.822 50.8934 136.822 50.8244C136.822 50.7554 136.882 50.6914 136.956 50.6914H138.711C138.786 50.6914 138.845 50.7505 138.845 50.8244C138.845 50.8983 138.786 50.9525 138.711 50.9525H137.94L137.366 53.0903H137.361Z" fill="#E5352B"/>
<path d="M139.507 53.0857L139.556 52.9182C139.383 53.1153 139.151 53.2532 138.859 53.2532C138.543 53.2532 138.266 53.066 138.266 52.736C138.266 52.3173 138.617 52.0611 139.096 52.0611C139.344 52.0611 139.581 52.1153 139.759 52.1597L139.769 52.1202C139.784 52.0661 139.794 51.9971 139.794 51.9478C139.794 51.7065 139.631 51.5686 139.284 51.5686C139.116 51.5686 138.968 51.603 138.854 51.6326C138.834 51.6424 138.815 51.6424 138.795 51.6424C138.731 51.6424 138.681 51.5932 138.681 51.5291C138.681 51.47 138.716 51.4257 138.775 51.4109C138.953 51.3518 139.121 51.3223 139.324 51.3223C139.794 51.3223 140.056 51.539 140.056 51.8986C140.056 51.9774 140.041 52.0661 140.016 52.1547L139.769 53.0906C139.744 53.1793 139.69 53.2286 139.616 53.2286C139.517 53.2286 139.487 53.1596 139.497 53.0857H139.507ZM139.675 52.4749L139.715 52.3468C139.551 52.2976 139.339 52.2631 139.106 52.2631C138.775 52.2631 138.548 52.4404 138.548 52.6966C138.548 52.8985 138.706 53.0315 138.943 53.0315C139.26 53.0315 139.586 52.8049 139.675 52.4749Z" fill="#E5352B"/>
<path d="M140.991 51.8247C141.188 51.5144 141.475 51.3223 141.727 51.3223C141.812 51.3223 141.861 51.3715 141.861 51.4503C141.861 51.5341 141.812 51.5883 141.703 51.608C141.322 51.6621 140.961 51.9528 140.822 52.4749L140.654 53.0906C140.63 53.1793 140.575 53.2286 140.501 53.2286C140.412 53.2286 140.362 53.1596 140.387 53.0561L140.817 51.4651C140.837 51.3814 140.892 51.3321 140.971 51.3321C141.06 51.3321 141.109 51.3962 141.085 51.4947L141 51.8247H140.991Z" fill="#E5352B"/>
<path d="M142.133 53.0905C142.108 53.1791 142.054 53.2284 141.979 53.2284C141.89 53.2284 141.841 53.1594 141.866 53.056L142.291 51.465C142.316 51.3812 142.37 51.332 142.449 51.332C142.538 51.332 142.593 51.396 142.563 51.5044L142.138 53.0905H142.133ZM142.583 50.9576C142.484 50.9576 142.425 50.8985 142.439 50.8148L142.459 50.7409C142.484 50.6621 142.553 50.6128 142.647 50.6128C142.746 50.6128 142.805 50.6719 142.786 50.7556L142.766 50.8295C142.746 50.9133 142.672 50.9576 142.583 50.9576Z" fill="#E5352B"/>
<path d="M144.324 52.1543C144.344 52.0952 144.354 52.0066 144.354 51.9474C144.354 51.7061 144.206 51.5583 143.963 51.5583C143.691 51.5583 143.41 51.8144 143.316 52.1593L143.068 53.0952C143.049 53.1838 142.989 53.2331 142.915 53.2331C142.826 53.2331 142.777 53.1641 142.801 53.0607L143.232 51.4696C143.251 51.3859 143.306 51.3366 143.385 51.3366C143.464 51.3366 143.513 51.3958 143.504 51.4696L143.459 51.6568C143.627 51.4647 143.805 51.312 144.082 51.312C144.394 51.312 144.562 51.514 144.616 51.7356C144.779 51.4795 145.037 51.312 145.368 51.312C145.699 51.312 145.937 51.5435 145.937 51.8883C145.937 51.977 145.907 52.0804 145.887 52.179L145.64 53.0952C145.62 53.1838 145.561 53.2331 145.487 53.2331C145.398 53.2331 145.348 53.1641 145.378 53.0607L145.62 52.1593C145.635 52.1001 145.645 52.0115 145.645 51.9524C145.645 51.711 145.502 51.5632 145.259 51.5632C144.987 51.5632 144.705 51.8194 144.611 52.1642L144.359 53.1001C144.339 53.1887 144.285 53.238 144.211 53.238C144.117 53.238 144.067 53.169 144.097 53.0656L144.334 52.1642L144.324 52.1543Z" fill="#E5352B"/>
<path d="M147.445 53.0857L147.49 52.9182C147.317 53.1153 147.089 53.2532 146.793 53.2532C146.476 53.2532 146.199 53.066 146.199 52.736C146.199 52.3173 146.55 52.0611 147.03 52.0611C147.277 52.0611 147.515 52.1153 147.693 52.1597L147.703 52.1202C147.717 52.0661 147.732 51.9971 147.732 51.9478C147.732 51.7065 147.564 51.5686 147.223 51.5686C147.055 51.5686 146.906 51.603 146.793 51.6326C146.773 51.6424 146.753 51.6424 146.733 51.6424C146.669 51.6424 146.62 51.5932 146.62 51.5291C146.62 51.47 146.654 51.4257 146.714 51.4109C146.892 51.3518 147.06 51.3223 147.262 51.3223C147.732 51.3223 147.994 51.539 147.994 51.8986C147.994 51.9774 147.98 52.0661 147.955 52.1547L147.708 53.0906C147.688 53.1793 147.628 53.2286 147.554 53.2286C147.455 53.2286 147.426 53.1596 147.436 53.0857H147.445ZM147.614 52.4749L147.653 52.3468C147.49 52.2976 147.277 52.2631 147.045 52.2631C146.714 52.2631 146.486 52.4404 146.486 52.6966C146.486 52.8985 146.639 53.0315 146.887 53.0315C147.198 53.0315 147.53 52.8049 147.619 52.4749H147.614Z" fill="#E5352B"/>
<path d="M149.437 52.7061C149.437 52.583 149.353 52.4943 149.081 52.3909C148.745 52.2628 148.552 52.1396 148.552 51.8786C148.552 51.5633 148.829 51.3022 149.264 51.3022C149.497 51.3022 149.739 51.4008 149.868 51.4944C149.912 51.519 149.937 51.5535 149.937 51.6076C149.937 51.6766 149.883 51.7308 149.813 51.7308C149.784 51.7308 149.754 51.716 149.734 51.7012C149.581 51.6027 149.418 51.5338 149.235 51.5338C148.973 51.5338 148.829 51.6766 148.829 51.8293C148.829 51.9525 148.903 52.0313 149.205 52.1446C149.541 52.2825 149.714 52.4155 149.714 52.6568C149.714 53.0017 149.398 53.243 148.997 53.243C148.735 53.243 148.478 53.1544 148.27 52.9869C148.231 52.9573 148.211 52.9179 148.211 52.8736C148.211 52.8046 148.265 52.7455 148.33 52.7455C148.364 52.7455 148.399 52.7652 148.429 52.7849C148.621 52.9376 148.814 53.0016 149.022 53.0016C149.23 53.0016 149.432 52.8785 149.432 52.6913L149.437 52.7061Z" fill="#E5352B"/>
</g>
<defs>
<clipPath id="clip0_494_288">
<rect width="166" height="82" fill="white"/>
</clipPath>
</defs>
</svg>
