<svg width="31" height="28" viewBox="0 0 31 28" fill="none" xmlns="http://www.w3.org/2000/svg">
  <path d="M18.9369 7.93425C18.5994 7.93109 18.3409 7.66471 18.3488 7.3264C18.3559 7.00706 18.6255 6.74463 18.9416 6.74858C19.2649 6.75253 19.544 7.04263 19.5345 7.36513C19.5258 7.68763 19.2634 7.93741 18.9369 7.93425Z" fill="white"/>
  <path d="M30.3532 15.2484V15.6041C30.1754 15.9211 29.909 16.0278 29.5446 16.023C28.2807 16.0064 27.0167 16.0207 25.752 16.0128C25.5568 16.0112 25.4651 16.0507 25.4066 16.2625C24.5229 19.4836 22.6669 21.9996 19.8806 23.835C19.8181 23.8761 19.7612 23.9259 19.6972 23.9749C20.2718 24.9907 20.837 25.9858 21.3982 26.9826C21.7184 27.5517 21.4654 27.9936 20.8212 27.9952C19.8932 27.9975 18.9644 27.9881 18.0364 27.9999C17.7013 28.0039 17.4784 27.875 17.3187 27.5833C16.9725 26.9518 16.6034 26.3329 16.2619 25.6989C16.1647 25.5187 16.0714 25.4681 15.8706 25.5155C13.9064 25.9803 11.9389 25.9787 9.97467 25.5155C9.77389 25.4681 9.68062 25.5187 9.5834 25.6981C9.23639 26.3408 8.86488 26.9692 8.51076 27.6071C8.36136 27.8766 8.14952 28.0007 7.83809 27.9975C6.89034 27.9896 5.9418 27.9975 4.99405 27.9936C4.38936 27.9912 4.13404 27.543 4.43441 27.0087C4.94109 26.1052 5.45409 25.2049 5.96314 24.303C6.0248 24.1931 6.0825 24.0809 6.14732 23.9591C6.06116 23.8983 5.99081 23.8469 5.91809 23.7979C2.84878 21.7451 0.919291 18.9248 0.220535 15.284C0.1241 14.782 0.0719308 14.2722 0 13.7663C0 13.213 0 12.6597 0 12.1064C0.0173899 12.021 0.038732 11.9356 0.0513791 11.8495C0.133586 11.2938 0.183384 10.731 0.30037 10.1824C1.74531 3.4225 8.40089 -1.08542 15.1893 0.227511C20.4378 1.24245 23.8249 4.43823 25.386 9.55243C25.4643 9.80774 25.571 9.86228 25.8113 9.85991C27.0563 9.84964 28.3012 9.86545 29.5454 9.84885C29.909 9.8441 30.1762 9.95081 30.354 10.2678V10.6235C30.2291 10.7729 30.1137 10.9318 29.9778 11.0709C29.4806 11.5768 28.9802 12.0779 28.4735 12.5743C28.3565 12.6889 28.2127 12.7767 28.0641 12.8905C28.5937 13.4177 29.0513 13.8643 29.4972 14.3212C29.7912 14.6224 30.0687 14.9393 30.354 15.2492L30.3532 15.2484ZM24.2367 9.87177C22.9783 4.89827 17.8618 0.393505 11.2259 1.32228C5.54974 2.11589 0.950119 7.13682 1.192 13.4628C1.42202 19.486 6.4137 24.4642 12.4504 24.669C18.887 24.8871 23.2305 20.2282 24.2193 16.0088C23.783 16.0997 23.5135 15.8476 23.2463 15.5662C22.8859 15.1867 22.5088 14.8223 22.1373 14.454C22.0867 14.4042 22.0258 14.3655 21.9563 14.3117C21.1492 19.3421 16.5014 22.7055 11.5247 21.9633C5.33316 21.0392 1.86625 14.0501 4.90789 8.56279C6.7449 5.24923 10.2853 3.42725 14.0376 3.87622C15.1758 4.01218 16.254 4.35365 17.2618 4.90301C17.6523 5.11564 17.7519 5.54248 17.4942 5.84285C17.2863 6.08473 17.0128 6.10766 16.635 5.91162C15.2311 5.18441 13.7451 4.89274 12.1674 5.03818C8.27125 5.39783 5.1972 8.58729 4.98852 12.5008C4.76166 16.7439 7.88709 20.3958 12.1215 20.8361C16.0366 21.2432 19.6695 18.7011 20.6149 14.8832C20.7224 14.45 20.7754 14.0034 20.8552 13.5529H18.2309C17.8515 16.4515 15.3711 18.4315 12.5824 18.2647C9.91538 18.1051 7.72505 15.9013 7.59542 13.2478C7.46104 10.5002 9.38499 8.08852 12.0528 7.67037C13.4044 7.45853 14.6723 7.70673 15.8192 8.45845C17.212 9.37063 18.0001 10.6772 18.2325 12.3261H20.8663C20.7777 11.8447 20.739 11.376 20.5999 10.9397C20.3991 10.3128 20.1311 9.70815 19.8798 9.09792C19.7699 8.82996 19.7873 8.59203 19.9952 8.39047C20.1936 8.19839 20.441 8.15808 20.675 8.30115C20.8014 8.37782 20.9074 8.51457 20.9801 8.64816C21.4749 9.5548 21.7792 10.5278 21.9587 11.6044C22.395 11.1665 22.8005 10.7666 23.1973 10.3595C23.4826 10.0662 23.7506 9.74846 24.2375 9.87256L24.2367 9.87177ZM17.0097 12.3332C16.8207 10.58 15.1418 8.60547 12.5871 8.79992C10.3177 8.97224 8.62853 10.9578 8.78109 13.2351C8.93286 15.4982 10.9287 17.2293 13.2147 17.0791C15.1331 16.9534 17.0784 15.1314 16.9859 13.5442H14.9213C15.0399 14.1955 14.4581 14.4943 14.0905 14.288C13.5831 14.0034 13.0716 13.7236 12.5831 13.4082C12.2298 13.1806 12.2338 12.6858 12.5879 12.4597C13.078 12.1467 13.5823 11.8534 14.0984 11.5863C14.4889 11.3839 14.9205 11.674 14.9355 12.1135C14.9379 12.1862 14.9355 12.2597 14.9355 12.3324H17.0089L17.0097 12.3332ZM28.3249 11.0416C26.929 11.0416 25.6184 11.0416 24.3071 11.0432C24.2604 11.0432 24.1988 11.0495 24.1695 11.0788C23.7609 11.4827 23.357 11.8906 22.9072 12.3435C24.2905 12.3435 25.6018 12.3443 26.9132 12.3403C26.9748 12.3403 27.0531 12.3119 27.0958 12.27C27.4894 11.8835 27.8775 11.4914 28.3249 11.0424V11.0416ZM28.2388 14.831C28.253 14.8065 28.2672 14.782 28.2822 14.7583C27.9163 14.401 27.5574 14.0359 27.1796 13.6912C27.0831 13.6035 26.9266 13.5371 26.797 13.5363C25.5923 13.5244 24.3877 13.5292 23.1831 13.53C23.1095 13.53 23.0368 13.5426 22.908 13.5545C23.338 13.9805 23.7285 14.3702 24.1237 14.7536C24.168 14.7963 24.2438 14.8271 24.3055 14.8279C25.6168 14.8318 26.9282 14.831 28.2396 14.831H28.2388ZM5.9086 26.8103C6.46508 26.8103 6.96622 26.815 7.46737 26.8048C7.53692 26.8032 7.63178 26.7391 7.66814 26.6759C7.96614 26.1669 8.25386 25.6507 8.55186 25.1227C8.0934 24.9274 7.65312 24.7401 7.1915 24.5433C6.77098 25.2863 6.35441 26.0206 5.90781 26.8095L5.9086 26.8103ZM17.2974 25.1243C17.5954 25.6515 17.8839 26.1661 18.1787 26.6775C18.2096 26.7305 18.2736 26.8016 18.3226 26.8024C18.8475 26.8111 19.3731 26.8079 19.9391 26.8079C19.4932 26.0206 19.0767 25.2855 18.6562 24.5441C18.1945 24.7409 17.7551 24.929 17.2974 25.125V25.1243Z" fill="white"/>
  </svg>
  