<svg width="32" height="28" viewBox="0 0 32 28" fill="none" xmlns="http://www.w3.org/2000/svg">
  <path d="M31.7177 14.2474C31.2807 14.7364 30.8752 15.2568 30.4027 15.7077C27.9396 18.056 25.1974 19.9971 22.024 21.274C17.7958 22.9755 13.5733 22.9219 9.38149 21.1427C5.91815 19.6733 2.9694 17.4663 0.376647 14.7645C0.229623 14.6117 0.124723 14.4209 0 14.2474C0 14.0822 0 13.917 0 13.7518C0.459246 13.2414 0.886278 12.6979 1.38187 12.2271C3.72765 10.001 6.3328 8.15001 9.32202 6.878C13.8806 4.93777 18.4144 5.03689 22.9045 7.10019C26.1241 8.57952 28.9003 10.6808 31.3419 13.2339C31.4881 13.3867 31.593 13.5775 31.7168 13.751V14.2466L31.7177 14.2474ZM15.8564 7.32568C12.1502 7.32733 9.1147 10.3232 9.10892 13.9864C9.10314 17.6637 12.1444 20.6752 15.8613 20.6735C19.5675 20.6719 22.603 17.6752 22.6088 14.0128C22.6145 10.3356 19.5749 7.32485 15.8555 7.32651L15.8564 7.32568ZM23.0614 9.27912C23.9774 10.7304 24.468 12.2997 24.4656 14.0112C24.4631 15.7135 23.9683 17.2754 23.063 18.7193C25.4683 17.4943 27.5787 15.9002 29.4991 13.9996C27.5779 12.0974 25.4642 10.4999 23.0606 9.27995L23.0614 9.27912ZM8.69263 18.7672C6.76479 15.564 6.76974 12.4236 8.6918 9.23122C6.25103 10.5008 4.13569 12.099 2.21859 14.0013C4.14725 15.9002 6.25433 17.5018 8.69345 18.7672H8.69263Z" fill="white"/>
  <path d="M14.9302 1.85684C14.9302 1.54792 14.9236 1.239 14.9319 0.930087C14.9459 0.403937 15.3457 0.00416181 15.8512 3.19042e-05C16.3559 -0.004098 16.773 0.393199 16.7837 0.916045C16.7961 1.54379 16.797 2.17236 16.7837 2.80011C16.773 3.32295 16.3542 3.72025 15.8504 3.71529C15.3457 3.71034 14.9459 3.31056 14.9319 2.78359C14.9236 2.47467 14.9302 2.16575 14.9302 1.85684Z" fill="white"/>
  <path d="M9.31444 5.45888C8.96505 5.45475 8.69825 5.29699 8.52232 5.00212C8.20597 4.47018 7.89292 3.9366 7.59474 3.39476C7.33869 2.93055 7.49315 2.37797 7.92844 2.12687C8.36951 1.87165 8.91631 2.00793 9.19384 2.4647C9.51432 2.99333 9.82737 3.52856 10.1214 4.07206C10.4741 4.72541 10.0372 5.46384 9.31526 5.45971L9.31444 5.45888Z" fill="white"/>
  <path d="M22.3808 5.45807C21.7159 5.45146 21.2567 4.7659 21.5565 4.16623C21.8605 3.55831 22.2107 2.97186 22.5716 2.39616C22.8244 1.99225 23.3704 1.88983 23.7809 2.1211C24.1749 2.34412 24.3847 2.86118 24.1741 3.27087C23.8494 3.90275 23.4967 4.52388 23.0986 5.11116C22.9632 5.31187 22.6559 5.39612 22.4271 5.53323C22.4122 5.50763 22.3965 5.48285 22.3817 5.45724L22.3808 5.45807Z" fill="white"/>
  <path d="M14.9302 26.1109C14.9302 25.7921 14.9236 25.4724 14.9319 25.1536C14.9459 24.6266 15.3457 24.2268 15.8512 24.2227C16.3559 24.2186 16.7747 24.615 16.7846 25.1379C16.7978 25.7863 16.7978 26.4355 16.7846 27.0839C16.7738 27.6067 16.3559 28.004 15.852 27.9999C15.3474 27.9958 14.9468 27.5952 14.9327 27.069C14.9245 26.7502 14.9311 26.4305 14.9311 26.1117L14.9302 26.1109Z" fill="white"/>
  <path d="M9.23794 22.4814C10.0507 22.498 10.4934 23.2 10.1796 23.8104C9.86486 24.4225 9.51299 25.0172 9.14791 25.6012C8.8902 26.0133 8.33018 26.1133 7.91637 25.8655C7.51742 25.6268 7.33818 25.099 7.56037 24.6802C7.88333 24.0723 8.23437 23.4776 8.59119 22.8895C8.763 22.607 9.04383 22.4814 9.23711 22.4823L9.23794 22.4814Z" fill="white"/>
  <path d="M24.2443 24.9957C24.2419 25.4723 23.9875 25.8299 23.6257 25.9472C23.2267 26.0769 22.7824 25.9497 22.5635 25.5937C22.2025 25.0073 21.854 24.4117 21.5318 23.803C21.2997 23.3644 21.4847 22.8415 21.906 22.6028C22.3297 22.3625 22.8674 22.474 23.1301 22.8969C23.4877 23.4734 23.8198 24.0665 24.1494 24.6595C24.2163 24.7801 24.227 24.9329 24.2443 24.9965V24.9957Z" fill="white"/>
  <path d="M17.2441 13.0697C17.0838 13.0697 16.9211 13.0771 16.76 13.068C16.2529 13.0416 15.863 12.6385 15.8605 12.1446C15.8581 11.6515 16.2471 11.2253 16.7526 11.217C17.7016 11.2021 18.6515 11.203 19.6006 11.2162C20.1218 11.2236 20.4984 11.6275 20.5034 12.1627C20.5116 12.9673 20.51 13.7726 20.5034 14.5771C20.4992 15.1313 20.1053 15.5394 19.5874 15.546C19.0686 15.5526 18.6788 15.1602 18.6474 14.5994C18.6449 14.5581 18.6433 14.5176 18.6383 14.4243C18.5499 14.5003 18.4839 14.5507 18.4252 14.6093C17.8181 15.2139 17.2151 15.8218 16.6064 16.424C16.1174 16.908 15.602 16.9088 15.118 16.4289C14.7529 16.0672 14.3919 15.7004 13.9864 15.2924C13.5891 15.7004 13.2149 16.0952 12.8292 16.4777C12.5591 16.7461 12.2287 16.837 11.862 16.7139C11.5076 16.595 11.3028 16.3356 11.2416 15.9705C11.1904 15.6641 11.2912 15.3956 11.5051 15.1792C12.1065 14.5697 12.7094 13.9609 13.3215 13.3621C13.7303 12.9623 14.2631 12.9615 14.6753 13.3612C15.0668 13.7404 15.4376 14.141 15.7961 14.5102C16.295 14.0138 16.76 13.5504 17.2441 13.068V13.0697Z" fill="white"/>
  </svg>
  